<svg width="60" height="79" viewBox="0 0 60 79" fill="none" xmlns="http://www.w3.org/2000/svg">
<path fill-rule="evenodd" clip-rule="evenodd" d="M8.48014 37.5512C11.3189 36.943 14.8748 36.1815 17.4206 33.7538C17.8916 33.3046 18.4691 32.6589 19.0573 31.8504C19.6003 35.7294 21.1847 37.8161 23.0557 39.3861C26.0525 41.9009 23.852 46.4433 23.0138 48.1733C23.0094 48.1833 23.0043 48.1932 22.9999 48.2026C21.4814 46.829 19.958 45.1266 18.4568 42.9765C17.9216 42.2099 17.4216 41.4147 16.9551 40.5924C16.8407 40.7701 16.7263 40.9467 16.6119 41.1233L16.6085 41.1283C14.1213 44.9748 11.8077 48.5525 11.2841 52.0491C10.8729 54.7962 11.0302 57.5059 11.1921 60.2895C11.326 62.5885 11.4627 64.9383 11.2836 67.4002C11.0704 70.3444 2.53513 71.186 0.727527 67.8213C-0.198833 66.0967 -0.00908867 57.8453 0.0746129 54.2185C0.0857738 53.7373 0.0947033 53.3372 0.0991691 53.0447C0.154973 49.3825 2.99936 44.758 6.14614 39.6411C6.51556 39.0401 6.88945 38.4319 7.26334 37.8183C7.64895 37.7295 8.05577 37.6423 8.47877 37.5518L8.47932 37.5512L8.48014 37.5512ZM8.2173 36.2361C9.86576 33.4679 11.4495 30.5934 12.6158 27.6801C11.3496 19.8514 11.8546 10.9657 13.8162 1.85482C14.0639 0.70309 15.2893 0.125877 16.8915 0C15.6705 1.58611 14.4243 6.13012 15.2938 9.56978C15.873 11.8623 17.0634 13.8014 18.1945 15.6447C19.0065 16.9675 19.7877 18.2406 20.2911 19.559C22.4173 25.1316 18.2761 31.4406 16.2509 33.1227C13.9467 35.0365 11.7113 35.5034 9.10465 36.0481C8.8139 36.1093 8.51814 36.1706 8.21736 36.2357L8.2173 36.2361ZM18.5228 0.0142689C17.3386 0.361385 15.5439 5.96229 16.6762 9.46594C17.3352 11.5051 18.4719 13.4124 19.5132 15.1601C20.4463 16.7251 21.3034 18.1633 21.6734 19.4546C22.8503 23.5626 21.7231 27.3203 20.2062 30.0503C20.4741 34.4139 21.7738 36.6512 24.2253 38.6963C27.2271 41.2007 25.5942 45.5057 24.511 48.3621C24.3961 48.6651 24.2878 48.951 24.1913 49.2175C27.626 51.9625 30.9944 53.1749 33.9683 54.2455C37.0415 55.3515 39.6938 56.3062 41.5639 58.6439C42.1515 59.379 42.7095 60.1548 43.234 60.9601C43.4059 60.4105 43.8194 59.7808 44.2759 59.085C45.5656 57.1198 47.1973 54.6331 44.685 51.9759C42.7061 49.8834 42.3825 48.1047 42.1504 46.8309C42.0008 46.0098 41.8898 45.3983 41.3981 45.0468C37.4232 43.5932 33.264 41.926 29.9643 37.7534C23.3504 29.39 26.1261 8.58546 26.5966 5.45336C27.0313 2.5589 22.3509 0.336478 18.5227 0.0147916L18.5228 0.0142689Z" fill="#8D8D8E"/>
<path fill-rule="evenodd" clip-rule="evenodd" d="M43.1873 46.0004C43.1938 46.0255 43.1998 46.0507 43.2062 46.0763C43.5869 47.6223 44.1463 49.896 45.6435 51.4888C48.4825 54.5107 46.6796 57.6253 45.3098 59.993C44.6209 61.1826 44.0415 62.1837 44.2159 62.8892C44.2381 62.9788 44.2618 63.0678 44.2861 63.1553C46.5177 67.317 47.8697 71.9261 47.8697 75.4775C47.8697 79.2872 59.6149 80.3283 59.9431 76.9966C60.5468 70.8633 56.2548 57.9045 51.3015 51.2808C49.2341 48.5158 46.3319 47.1983 43.1874 46L43.1873 46.0004Z" fill="#E67777"/>
</svg>
