<svg width="65" height="57" viewBox="0 0 65 57" fill="none" xmlns="http://www.w3.org/2000/svg">
<path d="M28.8337 21C27.0742 14.6194 21.6905 9.73769 15 8.65723C17.3909 5.51965 20.5435 3.12229 24.0991 1.66267C29.2932 -0.469275 35.3082 -0.637578 40.9139 1.66267C44.6549 3.19864 47.723 5.65376 50 8.64154C43.5012 9.69601 38.2113 14.3606 36.3075 20.4831H32.5026C31.2432 20.4825 30.0132 20.6632 28.8336 21L28.8337 21Z" fill="#009FE3"/>
<path d="M48.5995 42.243C57.6542 42.243 64.9992 35.0226 65 26.1046C65 19.4207 59.4962 14.0016 52.6988 14C45.9063 14 40.3976 19.417 40.3976 26.103H32.1997C27.6717 26.103 23.9986 29.7166 24 34.173C24 38.6281 27.6694 42.243 32.1997 42.243H40.3988L48.599 57H52.6997L48.5995 42.243Z" fill="#8D8D8E"/>
<path d="M19.1545 33.9981C19.1545 29.9248 21.0464 26.2946 24 23.9126C23.0032 18.2826 18.0632 13.9984 12.0984 14C5.41843 14 0 19.37 0 25.9996C0 30.4167 3.61 33.9997 8.06586 33.9997H19.1553C19.1548 34.0002 19.1548 34.0002 19.1548 33.9985L19.1545 33.9981Z" fill="#8D8D8E"/>
</svg>
