<svg width="50" height="64" viewBox="0 0 50 64" fill="none" xmlns="http://www.w3.org/2000/svg">
<path fill-rule="evenodd" clip-rule="evenodd" d="M39 43.3525C39 54.2147 30.2704 63.0127 19.4971 63.0127C8.73062 63.0127 0 54.2143 0 43.3525C0 34.7766 16.4278 10.9768 19.4971 4.0127C22.5718 10.978 39 34.7778 39 43.3525ZM17.0601 31.0574H21.9333V37.2061H28.0306V42.1192H21.9333V48.2667H17.0601V42.1192H10.968V37.2061H17.0601V31.0574Z" fill="#8D8D8E"/>
<path fill-rule="evenodd" clip-rule="evenodd" d="M49.9999 39.5171C49.9999 49.339 42.691 57.4922 33.1193 59.0137C37.5712 55.2265 40.4052 49.6355 40.4052 43.3485C40.4052 40.4779 38.7877 36.6544 37.596 34.07C35.7573 30.0817 33.5586 26.1831 31.3398 22.3913C29.1398 18.6318 26.8528 14.9263 24.5961 11.2007C24.3974 10.8722 24.1981 10.5436 24 10.2145C26.6578 5.84958 28.9049 2.14987 29.8719 0.0136719C33.0406 7.00937 50 30.9084 50 39.5175L49.9999 39.5171Z" fill="#009FE3"/>
</svg>
