<svg width="56" height="56" viewBox="0 0 56 56" fill="none" xmlns="http://www.w3.org/2000/svg">
<path d="M27.9998 0.000308545C20.5738 0.000308545 13.4519 2.95022 8.20111 8.20142C2.9498 13.4523 0 20.574 0 28.0002C0 35.4264 2.94991 42.5481 8.20111 47.7989C13.452 53.0502 20.5737 56 27.9998 56C35.426 56 42.5478 53.0501 47.7986 47.7989C53.0499 42.548 55.9997 35.4264 55.9997 28.0002C55.9953 20.5756 53.0442 13.4563 47.7942 8.20554C42.5441 2.95546 35.4247 0.0044228 27.9995 0L27.9998 0.000308545ZM26.8158 8.57633C26.8158 7.92223 27.3461 7.39225 27.9998 7.39225C28.6536 7.39225 29.1839 7.9222 29.1839 8.57633V10.8641C29.1839 11.5182 28.6536 12.0481 27.9998 12.0481C27.3461 12.0481 26.8158 11.5182 26.8158 10.8641V8.57633ZM10.8165 29.1845H8.57664C7.92254 29.1845 7.39256 28.6542 7.39256 28.0005C7.39256 27.3467 7.92251 26.8164 8.57664 26.8164H10.8644C11.5185 26.8164 12.0484 27.3467 12.0484 28.0005C12.0484 28.6542 11.5185 29.1845 10.8644 29.1845H10.8165ZM29.1362 47.424C29.1362 48.0781 28.6063 48.6081 27.9525 48.6081C27.2984 48.6081 26.7685 48.0781 26.7685 47.424V45.1363C26.7685 44.4822 27.2984 43.9522 27.9525 43.9522C28.6062 43.9522 29.1362 44.4821 29.1362 45.1363V47.424ZM38.8801 37.248L42.5279 40.9119L42.5283 40.9123C42.951 41.3619 42.951 42.0626 42.5283 42.5122C42.3037 42.736 41.9972 42.8577 41.6802 42.8481C41.3736 42.8525 41.0787 42.7312 40.8642 42.5122L37.2003 38.8484V38.848C34.6205 41.0469 31.342 42.2546 27.9526 42.2546C24.5627 42.2546 21.2842 41.0469 18.7044 38.848L15.0884 42.5761C14.8738 42.795 14.5789 42.9164 14.2727 42.912C13.9557 42.9216 13.6488 42.7999 13.4246 42.5761C13.0019 42.1265 13.0019 41.4257 13.4246 40.9761L17.0724 37.3123C14.9008 34.72 13.7102 31.4459 13.7102 28.0641C13.7102 24.6823 14.9007 21.4086 17.0724 18.8164L13.4246 15.0882C13.0019 14.6386 13.0019 13.9379 13.4246 13.4883C13.8802 13.0809 14.5689 13.0809 15.0245 13.4883L18.6883 17.1361V17.1365C21.2722 14.9468 24.5495 13.7446 27.9365 13.7446C31.3236 13.7446 34.6005 14.9468 37.1843 17.1365L40.8481 13.4887V13.4883C41.3038 13.0809 41.9928 13.0809 42.4481 13.4883C42.8707 13.9379 42.8707 14.6387 42.4481 15.0882L38.8003 18.7521V18.7525C40.99 21.3295 42.203 24.5952 42.2266 27.977C42.2499 31.3588 41.0823 34.6409 38.9284 37.2481L38.8801 37.248ZM47.3763 29.2482H45.1364C44.4823 29.2482 43.9523 28.7183 43.9523 28.0641C43.9523 27.4104 44.4822 26.8801 45.1364 26.8801H47.4245H47.4241C48.0782 26.8801 48.6082 27.4104 48.6082 28.0641C48.6082 28.7182 48.0782 29.2482 47.4241 29.2482H47.3763Z" fill="#8D8D8E"/>
<path d="M28 16.0317C24.2795 16.0325 20.7708 17.7638 18.5063 20.7161C16.2418 23.6684 15.4796 27.5058 16.4431 31.0994C17.407 34.6933 19.9872 37.6344 23.4249 39.0575C26.8625 40.4806 30.7666 40.2239 33.9882 38.3632C37.21 36.5021 39.3828 33.2485 39.8682 29.5598C40.3532 25.871 39.0948 22.1662 36.4635 19.5357C34.2224 17.2853 31.1753 16.0241 27.9996 16.0318L28 16.0317ZM34.592 26.2398L25.6801 35.9995C25.4591 36.2437 25.1453 36.3832 24.8158 36.3836C24.625 36.3848 24.4374 36.335 24.2718 36.2393C23.7945 36.0003 23.5482 35.4611 23.68 34.9436L25.0239 29.1676H22.2721C21.88 29.1616 21.5156 28.9643 21.2958 28.6396C21.0692 28.3162 21.027 27.898 21.1841 27.5356L24.1601 20.3196C24.3373 19.8745 24.7688 19.5828 25.2481 19.584H31.1997C31.6007 19.588 31.9727 19.7921 32.1917 20.1276C32.3998 20.4659 32.4295 20.8837 32.272 21.2478L30.912 24.2715H33.7441H33.7437C34.2102 24.2667 34.6365 24.5359 34.8317 24.9598C35.0334 25.3937 34.937 25.908 34.5919 26.2398L34.592 26.2398Z" fill="#009FE3"/>
<path d="M28.0801 26.0801C27.8587 25.7479 27.8225 25.3256 27.9841 24.9603L29.3602 21.9683H26.0323L24.0322 26.7683H26.5281C26.8825 26.7796 27.2148 26.9427 27.4402 27.2163C27.6632 27.5012 27.7455 27.8716 27.6644 28.2244L27.0083 31.0244L31.0723 26.5763H29.0561C28.6652 26.5984 28.2927 26.4092 28.0802 26.0801L28.0801 26.0801Z" fill="#009FE3"/>
</svg>
