<svg width="75" height="75" viewBox="0 0 75 75" fill="none" xmlns="http://www.w3.org/2000/svg">
<path d="M23.387 37.5565H32.2696C33.049 37.5565 33.8278 36.7771 33.8278 35.9983V26.0249C33.8278 21.1942 37.7237 17.1423 42.399 17.1423C43.1784 17.1423 43.9572 16.5189 43.9572 15.5841V7.63584C43.9572 6.701 43.1778 6.07764 42.399 6.07764H40.9968C30.5554 6.07764 21.8291 14.8048 21.8291 25.557V35.9977C21.8291 36.7771 22.6085 37.5565 23.3873 37.5565H23.387Z" fill="#E67777"/>
<path d="M23.0751 1.55821C23.0751 0.778811 22.4517 0 21.5169 0H13.2572C12.7898 0 12.3224 0.155988 12.011 0.46742C11.855 0.779396 11.699 1.09083 11.699 1.55823V14.804C9.51732 16.6742 8.27051 19.6348 8.27051 22.7517V23.0632C10.9196 21.6609 14.3481 20.5695 18.3999 19.7906C18.8673 19.7906 19.3347 19.6347 19.6467 19.6347C20.4261 16.8296 21.5169 14.3366 23.2312 12.1543L23.2306 1.55812L23.0751 1.55821Z" fill="#8D8D8E"/>
<path d="M12.4784 67.1647V62.3334C12.4784 61.866 12.6344 61.3986 13.1018 61.0867L16.3743 58.593L14.5042 45.0353C14.3482 44.1004 14.9716 43.3211 15.751 43.3211C16.5304 43.1651 17.4652 43.7885 17.4652 44.7233L19.4909 59.0601C19.6469 59.6835 19.3349 60.1509 18.8675 60.4623L15.5949 63.1131V69.8139C19.4908 72.9304 23.6981 74.8006 27.4385 74.8006C28.2179 74.8006 28.8407 74.8007 29.4642 74.6447C31.3344 74.3332 32.8927 73.5538 34.6069 72.6189L31.6459 65.7621C31.4899 65.6061 31.4899 65.2947 31.4899 65.1387V58.2818L26.5038 50.0227C26.0363 49.2433 26.3478 48.3085 26.9712 47.841C27.7506 47.3736 28.6854 47.685 29.1529 48.3085L34.2956 56.7235C34.4515 57.035 34.607 57.1909 34.607 57.5029V64.5152L37.1006 70.4368C43.6455 64.3592 47.23 52.8275 45.0483 41.7632C43.9575 35.6857 41.1525 30.6989 37.1006 27.4264V35.9976C37.1006 38.4912 34.9189 40.6729 32.4253 40.6729L23.3867 40.6724C20.8931 40.6724 18.7114 38.4907 18.7114 35.9971V25.5563C18.7114 24.6214 18.7114 23.6861 18.8674 22.9072H18.712C4.37519 25.7122 -1.8582 33.504 0.479321 45.9708C1.88211 53.6065 6.71285 61.5542 12.4789 67.1643L12.4784 67.1647Z" fill="#8D8D8E"/>
<path d="M73.2541 46.5947H70.1377L66.7092 33.3489C66.5532 32.5695 65.9298 32.1021 65.151 32.1021C64.3716 32.1021 63.7487 32.7255 63.7487 33.3489L60.6323 50.9582L58.7622 44.4133C58.6062 43.7898 58.1387 43.3224 57.5154 43.3224C56.8919 43.1664 56.2685 43.4784 55.9571 44.1018L52.6846 49.3999L49.7236 39.5825C49.5676 38.9591 48.9442 38.4917 48.3214 38.4917C48.01 38.4917 47.698 38.4917 47.542 38.6477C47.8534 39.5825 48.0094 40.3618 48.1654 41.2967C48.4768 43.3224 48.7888 45.3486 48.7888 47.3743L50.8145 53.7638C50.9705 54.3872 51.4379 54.8546 52.0613 54.8546C52.6847 55.0106 53.3081 54.6986 53.6195 54.0752L56.7359 48.7771L59.541 58.439C59.697 59.0624 60.3204 59.5298 61.0992 59.5298H61.2552C62.0346 59.5298 62.6574 58.9064 62.6574 58.283L65.6184 41.1412L67.6441 48.6215C67.8001 49.2449 68.4235 49.8683 69.2023 49.8683L73.2542 49.8678C74.189 49.8678 74.8124 49.2444 74.8124 48.3096C74.8124 47.2182 74.189 46.5948 73.2542 46.5948L73.2541 46.5947Z" fill="#8D8D8E"/>
</svg>
