<svg width="56" height="70" viewBox="0 0 56 70" fill="none" xmlns="http://www.w3.org/2000/svg">
<path d="M22.1299 24.44L21.9516 24.3122C21.8752 24.2611 15.3304 20.094 15.3304 7.61823V7.18363L15.0503 6.87685C14.923 6.77459 13.8025 5.67529 11.2559 5.67529C8.78564 5.67529 7.89432 6.77459 7.74153 7.00467L7.56327 7.26032L6.64648 25.0025V25.0791V25.1558C6.97754 29.3741 9.62602 37.3759 17.3423 37.3759H36.1108L22.1299 24.44Z" fill="#8D8D8E"/>
<path d="M53.9372 38.9102C53.8863 34.0784 53.5807 32.2121 53.0969 31.4707C52.7658 26.8435 49.99 18.8672 41.4588 18.8672C40.6949 18.8672 39.9054 18.9183 39.0396 19.0717C38.9377 19.0973 30.814 20.9124 30.3301 29.5278L27.5289 26.9202C27.4015 26.7923 24.0655 24.0313 20.2201 24.0313C18.5648 24.0313 17.0368 24.5426 15.7381 25.5652C11.0268 29.1699 7.7417 34.4619 7.7417 38.3989C7.7417 41.1088 8.98954 50.3377 12.9113 51.1558C14.3629 53.0221 21.1114 61.433 27.2742 64.5008C33.1824 67.4407 38.8613 69.0513 43.2669 69.0513C44.9222 69.0513 46.3738 68.8213 47.5452 68.3611C51.467 66.8272 52.7403 58.6208 53.5553 50.0054L53.6062 49.3918C53.8099 46.8098 53.9627 42.4381 53.9372 38.9102Z" fill="#8D8D8E"/>
<path d="M49.6335 65.5744C46.7303 61.5351 44.6421 56.9334 42.2483 51.6159C40.0837 46.8097 37.6135 41.3643 34.0737 35.4077C31.5525 31.1383 27.7835 27.1502 27.6053 26.9968L27.5289 26.9201C27.4015 26.7923 24.0655 24.0312 20.2201 24.0312C18.5648 24.0312 17.0368 24.5426 15.7381 25.5652C11.0268 29.1698 7.7417 34.4618 7.7417 38.3988C7.7417 41.1087 8.98954 50.3377 12.9113 51.1557C14.3629 53.022 21.1114 61.4329 27.2742 64.5007C33.1824 67.4407 38.8613 69.0513 43.2669 69.0513C44.9222 69.0513 46.3483 68.8212 47.5452 68.361C48.2328 68.0798 48.895 67.6452 49.5316 67.0061L50.1683 66.3669L49.6335 65.5744Z" fill="#E67777"/>
<path d="M26.7904 13.9076C23.5562 12.0669 18.8959 11.53 18.7431 11.53L2.01182 8.8457L1.85903 8.87127C1.4261 8.9224 0 9.33144 0 12.5015C0 15.3392 1.04411 16.6175 1.14598 16.7453L1.3497 16.9754L1.62983 17.0776C2.19009 17.231 15.025 21.526 19.4307 21.526C19.7362 21.526 20.1182 21.6282 20.5512 22.344L20.8568 22.8809L21.4679 22.9065C21.9773 22.932 22.5375 23.0087 23.1487 23.111L24.3711 23.3411L24.4475 22.0884C24.6257 19.7875 25.5425 17.5378 27.1214 15.5693L27.9363 14.5467L26.7904 13.9076Z" fill="#808080"/>
<path d="M54.8031 9.91947C54.6757 9.91947 42.8085 10.7887 38.0209 10.7887C31.3742 10.7887 29.0823 14.2144 28.2928 16.3107C26.7649 19.5319 23.4797 22.8554 23.0723 24.6705C26.7139 25.9487 29.6425 28.5564 31.527 31.8798C31.8326 32.2633 32.1127 32.6723 32.3674 33.0814H32.5202V31.9565C32.5202 21.4749 40.5675 20.5545 40.8985 20.529L55.949 17.6912V9.84277L54.8031 9.91947Z" fill="#808080"/>
<path d="M34.2265 0C28.573 0 21.2388 3.47684 14.8213 30.5246L16.8586 31.0104C16.8586 30.9848 16.8586 30.9848 16.8586 30.9592L26.281 32.7744C25.4661 30.8825 24.9823 28.8118 24.9059 26.6899C24.7276 22.7273 26.7904 18.2023 29.5407 15.4413C29.668 15.3134 29.8208 15.1856 29.9736 15.0578C29.9736 15.0322 29.9991 15.0067 29.9991 15.0067C30.5339 14.5209 31.0687 14.0352 31.6799 13.6262C32.0109 12.9359 32.342 12.2968 32.7494 11.7088C33.9973 9.84253 35.4488 8.87106 36.875 8.92219C39.1669 9.02445 39.2688 9.12671 39.829 10.7884C40.1346 10.7884 40.4402 10.7373 40.7458 10.7373C40.7967 10.7373 40.8731 10.7373 40.9241 10.7373V10.7629C41.1278 10.7629 41.357 10.7373 41.5607 10.7373C43.1396 10.7629 44.7185 10.814 46.272 10.7629C47.2906 10.5328 48.3347 10.3794 49.3279 10.3283C47.7999 2.93998 43.4961 0 34.2265 0Z" fill="#E67777"/>
</svg>
