<svg width="65" height="64" viewBox="0 0 65 64" fill="none" xmlns="http://www.w3.org/2000/svg">
<path d="M20.01 32.1338H27.61C28.2768 32.1338 28.9432 31.4669 28.9432 30.8005V22.2672C28.9432 18.134 32.2765 14.6672 36.2768 14.6672C36.9436 14.6672 37.61 14.1338 37.61 13.334V6.53341C37.61 5.73355 36.9431 5.2002 36.2768 5.2002H35.077C26.1433 5.2002 18.677 12.6672 18.677 21.8669V30.8001C18.677 31.4669 19.3439 32.1338 20.0102 32.1338H20.01Z" fill="#009FE3"/>
<path d="M19.7433 1.33321C19.7433 0.666357 19.2099 0 18.4101 0H11.3431C10.9432 0 10.5432 0.133464 10.2768 0.399928C10.1433 0.666857 10.0099 0.933321 10.0099 1.33324V12.6664C8.1432 14.2666 7.07642 16.7997 7.07642 19.4666V19.733C9.34296 18.5333 12.2764 17.5995 15.7432 16.933C16.1431 16.933 16.5431 16.7996 16.81 16.7996C17.4768 14.3996 18.4101 12.2665 19.8769 10.3993L19.8764 1.33314L19.7433 1.33321Z" fill="#8D8D8E"/>
<path d="M10.6766 57.4667V53.333C10.6766 52.9331 10.8101 52.5331 11.21 52.2662L14.01 50.1326L12.4099 38.5325C12.2764 37.7327 12.8098 37.0659 13.4767 37.0659C14.1435 36.9324 14.9433 37.4658 14.9433 38.2656L16.6765 50.5323C16.81 51.0657 16.5431 51.4656 16.1431 51.732L13.3431 54V59.7333C16.6765 62.3998 20.2762 64 23.4766 64C24.1434 64 24.6764 64 25.2098 63.8666C26.8099 63.6001 28.1433 62.9332 29.6099 62.1333L27.0765 56.2665C26.943 56.1331 26.943 55.8666 26.943 55.7332V49.8664L22.6768 42.7998C22.2769 42.133 22.5434 41.3332 23.0767 40.9332C23.7436 40.5332 24.5434 40.7997 24.9434 41.3331L29.3435 48.5331C29.477 48.7996 29.61 48.933 29.61 49.1999V55.1997L31.7436 60.2663C37.3434 55.0663 40.4104 45.1996 38.5437 35.7329C37.6104 30.5329 35.2104 26.2663 31.7436 23.4663V30.7998C31.7436 32.9334 29.8769 34.8001 27.7433 34.8001L20.0099 34.7996C17.8763 34.7996 16.0096 32.9329 16.0096 30.7994V21.8662C16.0096 21.0663 16.0096 20.266 16.1431 19.5996H16.0101C3.74344 21.9996 -1.58989 28.6663 0.410111 39.3329C1.61035 45.8661 5.74356 52.6663 10.677 57.4663L10.6766 57.4667Z" fill="#8D8D8E"/>
<path d="M62.6767 39.8668H60.0103L57.0768 28.5336C56.9434 27.8667 56.41 27.4668 55.7436 27.4668C55.0768 27.4668 54.5438 28.0002 54.5438 28.5336L51.8774 43.6002L50.2773 38.0004C50.1438 37.467 49.7439 37.067 49.2105 37.067C48.6771 36.9336 48.1438 37.2005 47.8773 37.7339L45.0773 42.267L42.5439 33.8671C42.4104 33.3337 41.877 32.9338 41.3441 32.9338C41.0776 32.9338 40.8107 32.9338 40.6772 33.0673C40.9437 33.8671 41.0772 34.5339 41.2106 35.3338C41.4771 37.067 41.744 38.8006 41.744 40.5338L43.4772 46.0007C43.6107 46.5341 44.0106 46.934 44.544 46.934C45.0774 47.0675 45.6108 46.8006 45.8772 46.2672L48.5437 41.7341L50.9437 50.0009C51.0771 50.5343 51.6105 50.9342 52.2769 50.9342H52.4103C53.0772 50.9342 53.6101 50.4008 53.6101 49.8674L56.1435 35.2007L57.8768 41.601C58.0102 42.1344 58.5436 42.6677 59.21 42.6677L62.6768 42.6673C63.4766 42.6673 64.01 42.1339 64.01 41.3341C64.01 40.4003 63.4766 39.8669 62.6768 39.8669L62.6767 39.8668Z" fill="#009FE3"/>
</svg>
