<svg width="63" height="63" viewBox="0 0 63 63" fill="none" xmlns="http://www.w3.org/2000/svg">
<path d="M30.1753 9.1985C30.1753 9.762 30.5952 10.2386 31.1571 10.3135C32.6134 10.5068 34.0354 10.9011 35.3815 11.4852C35.7317 11.6373 36.1349 11.6037 36.4548 11.3958C36.7742 11.1878 36.9667 10.8338 36.9667 10.4541V5.48093C37.6989 5.73858 38.4983 5.73858 39.2305 5.48093V13.3484C39.2305 13.6683 39.3674 13.9726 39.6075 14.1861C40.4155 14.9058 41.1471 15.7058 41.7915 16.5737L37.8545 20.8421C36.0949 17.8283 32.8993 15.9253 29.3949 15.8047C25.8911 15.6846 22.5706 17.3636 20.606 20.2499H14.3285V20.0726C15.2401 17.8201 16.66 15.8066 18.4792 14.1865C18.7187 13.973 18.8562 13.6682 18.8562 13.3483V5.48083C19.5884 5.73848 20.3878 5.73848 21.12 5.48083V10.454C21.12 10.8337 21.3125 11.1872 21.6319 11.3952C21.9512 11.6031 22.3545 11.6367 22.7046 11.4851C24.0508 10.901 25.4727 10.5067 26.9291 10.3134C27.4915 10.239 27.9114 9.7619 27.9114 9.19839V5.48087C28.6436 5.73852 29.443 5.73852 30.1752 5.48087L30.1753 9.1985ZM21.12 2.29934C21.12 1.84431 20.8441 1.43399 20.4211 1.26022C19.9982 1.08594 19.5116 1.18187 19.1877 1.5038C18.8637 1.82573 18.7672 2.30938 18.9426 2.72976C19.1174 3.15012 19.5303 3.42434 19.9881 3.42434C20.6131 3.42384 21.1195 2.9206 21.12 2.29934ZM34.7404 20.4511C34.7096 20.4189 34.6793 20.3863 34.6479 20.3552C33.1648 18.8736 31.1467 18.0434 29.044 18.0494C26.9975 18.0539 25.0318 18.8424 23.5547 20.2501H31.1128C32.3245 20.2511 33.5357 20.318 34.7404 20.4511ZM30.1753 2.2993C30.1753 1.84427 29.8994 1.43395 29.4764 1.26018C29.0535 1.0859 28.5669 1.18183 28.2429 1.50376C27.919 1.82569 27.8225 2.30934 27.9979 2.72972C28.1727 3.15008 28.5855 3.4243 29.0434 3.4243C29.6684 3.4238 30.1748 2.92056 30.1753 2.2993ZM36.9667 2.2993C36.9667 2.75433 37.2426 3.16465 37.6656 3.33842C38.0885 3.5127 38.5751 3.41677 38.8991 3.09484C39.223 2.77291 39.3195 2.28926 39.1441 1.86888C38.9693 1.44851 38.5564 1.1743 38.0986 1.1743C37.4736 1.1748 36.9672 1.67804 36.9667 2.2993ZM9.23429 5.62506C9.98468 5.62506 10.7047 5.32875 11.2354 4.80141C11.766 4.27406 12.0641 3.55838 12.0641 2.81253C12.0641 2.06671 11.766 1.35106 11.2354 0.823656C10.7048 0.296306 9.98471 0 9.23429 0C8.48386 0 7.76384 0.296319 7.2332 0.823656C6.70261 1.35101 6.40449 2.06669 6.40449 2.81253C6.4055 3.55835 6.70364 4.27298 7.23422 4.80038C7.76481 5.32773 8.48389 5.62405 9.23429 5.62506ZM6.40451 27.3318C6.40856 32.2341 8.45812 36.9149 12.0641 40.2597V22.5001H6.40451V27.3318ZM63 27.0491H58.7109L56.3601 29.2991H63V27.0491ZM19.3406 38.0761C18.2411 40.2543 17.7488 42.994 17.8773 46.2183L20.1396 46.1294C19.9622 41.6595 21.1724 39.2097 21.9623 38.1022C23.1679 41.0639 24.2438 45.2319 24.4166 50.8489L26.6794 50.7801C26.3868 41.2407 23.606 35.5508 21.6576 32.7029C25.1266 32.8295 27.4324 33.3809 29.1919 34.4779C30.205 35.1097 31.0485 35.9278 31.8761 36.999C31.3435 38.229 30.0327 41.7456 30.013 46.5907L32.2769 46.5998H32.2759C32.2819 44.1218 32.671 41.6598 33.4305 39.2994C33.6695 39.6896 33.9136 40.0994 34.1678 40.5369L36.1278 39.4119C34.3658 36.3809 32.8408 34.1755 30.6098 32.7085C32.3652 31.9105 35.4073 30.9878 39.5463 31.4484L39.7985 29.2124C33.6392 28.5269 29.6143 30.5403 28.1095 31.485C26.065 30.7669 23.4798 30.4243 19.9871 30.4243H14.3275V22.5001H31.1109C32.7374 22.5011 34.3621 22.6301 35.9685 22.8858L33.8674 25.1639C33.5642 25.4929 33.4849 25.969 33.6658 26.3773C33.8462 26.7857 34.253 27.0493 34.7017 27.0493H44.1501L32.5672 49.0274C32.3095 49.5161 32.4465 50.1182 32.8906 50.4493C33.3348 50.7803 33.9548 50.7421 34.3545 50.3599L53.4766 32.0577C58.8597 37.5576 61.87 44.929 61.8669 52.6021C61.8669 55.3599 60.7648 58.0042 58.8026 59.9544C56.8404 61.9046 54.18 63 51.4052 63H36.3812C30.7959 62.999 25.4189 60.8921 21.3352 57.1047C17.2515 53.3174 14.7656 48.1318 14.3785 42.5941C14.3437 42.0934 14.326 32.6746 14.326 32.6746H18.7915C19.6152 33.6524 20.3267 34.7182 20.9128 35.8527C20.2685 36.5026 19.7369 37.2539 19.3392 38.0766L19.3406 38.0761ZM39.6283 48.2444C40.6774 49.281 41.8254 50.2136 43.0564 51.0298C43.3656 51.6686 44.8816 55.0461 44.7593 59.6451L47.0221 59.7044C47.0842 57.3403 46.775 54.9804 46.1044 52.7112C47.0661 53.1451 48.061 53.5033 49.0797 53.7815L55.9101 55.6347L56.5064 53.464L49.6765 51.6108C47.2197 50.9268 44.9286 49.7541 42.9417 48.1644C44.6851 46.6929 48.3779 44.6533 54.0602 46.8144L54.8692 44.7131C49.8151 42.791 46.0368 43.7799 43.7573 44.9476C42.8498 45.4132 42.0049 45.9907 41.2423 46.6662C41.2363 46.6602 41.2297 46.6542 41.2236 46.6481L39.6283 48.2444ZM63 36.0491H59.4436C59.8943 36.7813 60.3153 37.5317 60.7059 38.2991H63L63 36.0491ZM6.34371 20.2502H12.0645V7.02017C11.2271 7.57764 10.2423 7.87547 9.23468 7.87547C8.22708 7.87547 7.24226 7.57764 6.4049 7.02017V12.3754H4.14108V10.8205L1.25167 9.3846L0 11.8722L0.717049 12.2278C3.84901 13.7701 5.97128 16.7959 6.34371 20.2502Z" fill="#8D8D8E"/>
<path d="M49.2308 20.3965L55.7535 5L37 25.3323H45.746C46.1376 25.3429 46.4969 25.5508 46.7 25.8838C46.9026 26.2168 46.9208 26.6296 46.7485 26.9792L37.5341 44.4623L49.2918 33.2097L61.0494 21.9571H50.2735C49.898 21.9481 49.5509 21.7573 49.3432 21.4464C49.1355 21.1355 49.0934 20.744 49.2308 20.3965Z" fill="#E67777"/>
</svg>
