<svg width="72" height="61" viewBox="0 0 72 61" fill="none" xmlns="http://www.w3.org/2000/svg">
<path d="M18.7076 33.1886C17.7984 34.7041 16.2068 35.5377 14.6156 35.5377C13.782 35.5377 12.9484 35.3104 12.1903 34.8558C9.91663 33.492 9.1592 30.5359 10.523 28.2628L11.5084 26.6711C9.00753 26.292 7.18846 23.9429 7.49186 21.4419C7.79476 18.7892 10.1445 16.8946 12.7966 17.1981L13.5546 17.2737L13.0239 14.2427C12.5692 11.6662 14.3121 9.1652 16.9647 8.71064C19.6174 8.25602 22.0422 9.99888 22.4968 12.6515L23.4821 18.1835C27.802 14.6217 28.4839 8.17988 24.9221 3.78472C21.3603 -0.610705 14.9185 -1.29275 10.5233 2.34471C5.74829 6.20952 2.26253 11.8171 0.822515 18.1834C-0.693015 24.5491 -0.0867214 31.0664 2.41423 36.6745C4.15711 40.4637 7.87063 42.6611 11.7354 42.6611C13.1755 42.6611 14.6153 42.3582 15.9792 41.7519C20.9048 39.4783 23.1784 33.8707 21.36 28.8689L18.7076 33.1886Z" fill="#8D8D8E"/>
<path d="M23.2547 20.9873L22.4966 20.9117C21.8147 20.8361 21.284 20.3054 21.1328 19.6235L19.9963 13.2578C19.8445 12.1213 18.8597 11.2876 17.7988 11.2876C16.3588 11.2876 15.3735 12.5758 15.6014 13.9403L16.5106 19.3212C16.5862 19.8519 16.2077 20.3065 15.677 20.2304L12.6459 19.8514C11.5094 19.6997 10.4485 20.3821 10.1451 21.4431C9.76603 22.8069 10.6758 24.1713 12.0396 24.323L14.5405 24.6259C15.0712 24.7015 15.3741 25.3078 15.1468 25.7624L12.8732 29.6272C12.2669 30.6126 12.4186 31.9009 13.3278 32.6583C13.7824 32.9612 14.237 33.189 14.6916 33.189C15.4497 33.189 16.2072 32.81 16.5862 32.1281L20.0725 26.217C20.3754 25.6863 20.9818 25.3834 21.588 25.459L22.8007 25.6107C26.5142 26.0653 29.3181 29.1725 29.3181 32.9616V58.4248C29.3181 59.5614 30.0761 60.5467 31.2126 60.774C32.6527 61.0013 33.8653 59.9403 33.8653 58.5765L33.8643 32.7344C33.7887 26.7473 29.2415 21.6698 23.2549 20.9879L23.2547 20.9873Z" fill="#8D8D8E"/>
<path d="M71.1498 18.1834C69.6343 11.8934 66.2242 6.20962 61.4495 2.34468C57.0541 -1.21714 50.6128 -0.535222 47.0507 3.78469C43.4889 8.18012 44.1708 14.6214 48.4907 18.1835L49.4761 12.6515C49.9307 10.075 52.4316 8.25604 55.0081 8.71061C57.5846 9.16522 59.4036 11.6662 58.949 14.2426L58.4183 17.2737L59.1763 17.1981C61.829 16.8952 64.1781 18.7898 64.481 21.4418C64.7839 24.0183 62.9655 26.292 60.4645 26.671L61.4498 28.2627C62.8137 30.5364 62.0562 33.4919 59.7826 34.8557C59.0246 35.3104 58.1909 35.5377 57.3573 35.5377C55.69 35.5377 54.0989 34.704 53.2652 33.1885L50.6887 28.8686C48.7942 33.8704 51.0678 39.5542 56.0696 41.7516C57.4335 42.358 58.8735 42.6609 60.3134 42.6609C64.1782 42.6609 67.9673 40.3872 69.6346 36.6743C72.0588 31.0671 72.6652 24.5498 71.1495 18.1831L71.1498 18.1834Z" fill="#E67777"/>
<path d="M51.9007 25.989L55.387 31.9001C55.8416 32.582 56.5235 32.961 57.2816 32.961C57.7362 32.961 58.2669 32.8093 58.6454 32.4303C59.5546 31.7483 59.7063 30.384 59.1 29.3992L56.8264 25.5344C56.5235 25.0798 56.8264 24.4735 57.4327 24.3979L59.9336 24.095C61.2974 23.9433 62.2072 22.5794 61.8281 21.2151C61.5252 20.1541 60.3881 19.4722 59.3273 19.6233L56.2962 20.0024C55.7655 20.078 55.387 19.6233 55.4626 19.0931L56.3718 13.7123C56.5991 12.3484 55.6138 11.1358 54.1744 11.0596C53.0378 11.0596 52.1281 11.9688 51.9769 13.0298L50.8404 19.3955C50.6887 20.0774 50.1585 20.6081 49.4766 20.6837L48.7185 20.7593C42.7319 21.4412 38.1847 26.5187 38.1847 32.5058L38.1836 58.3479C38.1836 59.7118 39.3962 60.7733 40.8363 60.5454C41.9728 60.3937 42.7309 59.3327 42.7309 58.1962V32.7331C42.7309 29.0195 45.5347 25.8366 49.2482 25.3821L50.4609 25.2304C50.9911 25.2304 51.5974 25.5333 51.9009 25.9879L51.9007 25.989Z" fill="#8D8D8E"/>
</svg>
