<svg width="1920" height="119" viewBox="0 0 1920 119" fill="none" xmlns="http://www.w3.org/2000/svg">
<path d="M1922.77 108.816L1923.32 107.977L1922.77 108.816C1925.35 110.488 1925.49 113.388 1924.22 115.569C1923.59 116.654 1922.65 117.474 1921.58 117.818C1920.55 118.152 1919.31 118.07 1917.98 117.199L1917.43 118.036L1917.98 117.198C1915.33 115.476 1912.68 113.747 1910.04 112.018C1892.45 100.526 1874.85 89.0198 1856.27 79.1401L1856.02 79.0051L1855.73 79.0255C1854.87 79.0865 1853.94 78.9072 1852.97 78.3628C1839.25 70.5498 1825.18 63.3385 1810.73 56.9193C1694.32 5.08394 1556.85 1.79876 1438.32 48.6521L1438.69 49.5821L1438.32 48.6522C1427.82 52.8069 1417.45 57.4254 1407.1 62.0352C1401.48 64.5378 1395.87 67.0379 1390.25 69.4599C1374.23 76.3562 1358.04 82.6494 1341.09 86.6982L1341.32 87.6709L1341.09 86.6983C1314.77 92.994 1287.5 93.4857 1260.72 89.9572C1215.18 83.9293 1172.09 67.7001 1129.12 51.5131C1118.78 47.6176 1108.44 43.7245 1098.08 39.9766C1045.47 20.9526 988.407 3.45001 931.658 13.4849L931.832 14.4696L931.658 13.485C898.659 19.3328 868.399 33.899 838.625 48.2308L836.594 49.2084L836.593 49.2087C806.912 63.515 777.008 76.4452 745.241 85.1998L745.24 85.2C682.769 102.454 616.678 105.838 552.656 95.7625C519.819 90.575 487.587 81.7415 456.788 69.2632L456.788 69.263C443.664 63.9536 430.798 58.0384 417.909 52.113C414.681 50.6293 411.452 49.1449 408.218 47.6692C392.079 40.3064 375.812 33.1681 358.947 27.462C234.576 -14.6661 100.843 40.1562 2.68338 116.645L3.29804 117.434L2.68336 116.645C0.25244 118.539 -2.73264 117.829 -4.54617 116.031C-5.44514 115.14 -5.96772 114.056 -5.99854 113.022C-6.02812 112.03 -5.61063 110.948 -4.35425 109.973L-4.35254 109.972C7.67134 100.603 19.9928 91.5757 32.6499 83.1148C84.9881 48.1713 143.776 20.9223 205.81 9.27386L205.811 9.27369C268.908 -2.63242 330.867 4.08947 389.901 29.1038L390.291 28.1831L389.901 29.1039C400.43 33.564 410.861 38.3017 421.301 43.0437C443.653 53.1962 466.049 63.3686 489.546 70.8788C522.342 81.3761 556.386 87.9842 590.733 90.5142C658.399 95.5358 727.053 85.3421 790 59.8524C805.326 53.6525 820.198 46.4855 835.034 39.3361L836.608 38.5779C851.976 31.1732 867.324 23.8237 883.173 17.5854C911.149 6.58731 940.342 0.440388 970.458 1.04015C1024.98 2.14228 1076.93 21.6281 1127.68 40.6646C1130.52 41.7291 1133.36 42.7921 1136.19 43.8502L1138.02 44.5382C1190.61 64.2495 1245.85 84.9583 1303.17 82.3405C1337.94 80.7489 1369.57 68.2443 1400.83 54.3766L1400.42 53.4626L1400.83 54.3764C1430.73 41.0863 1460.75 29.132 1492.45 21.0901C1614.56 -9.89092 1747.82 7.48138 1857.38 69.7783L1857.65 69.9288L1857.95 69.9063C1858.78 69.8448 1859.65 69.9944 1860.58 70.4733C1879.17 80.3357 1896.75 91.8213 1914.38 103.341C1917.17 105.167 1919.97 106.994 1922.77 108.816Z" fill="#009FE3" stroke="white" stroke-width="2"/>
</svg>
