<svg width="1920" height="121" viewBox="0 0 1920 121" fill="none" xmlns="http://www.w3.org/2000/svg">
<path opacity="0.04" d="M1926.66 109.532C1906 96.0413 1885.56 82.2069 1863.75 70.589C1862.64 70.0157 1861.58 69.8246 1860.55 69.9011C1749.63 6.576 1614.72 -11.0801 1491.11 20.4104C1459 28.5888 1428.61 40.7417 1398.37 54.2322C1366.8 68.296 1335 80.9075 1300.08 82.5126C1241.74 85.1878 1185.5 63.7482 1131.77 43.5316C1077.82 23.2767 1022.38 1.22566 963.999 0.0409372C933.419 -0.57053 903.792 5.69701 875.423 16.8945C843.318 29.5825 813.271 46.78 781.281 59.7737C717.832 85.5699 648.627 95.8884 580.412 90.8056C545.791 88.2451 511.474 81.5572 478.415 70.9329C443.641 59.7736 411.345 42.8437 377.828 28.5888C318.003 3.13649 255.203 -3.7043 191.259 8.4104C128.421 20.2576 68.9004 47.9647 15.938 83.468C3.12635 92.0668 -9.34211 101.239 -21.5055 110.755C-27.4919 115.417 -19.0652 123.748 -13.1551 119.124C85.9063 41.6207 220.657 -13.7553 345.838 28.8181C379.811 40.3596 411.421 57.7099 444.632 71.2004C475.822 83.8884 508.461 92.8693 541.711 98.1432C606.531 108.385 673.449 104.946 736.707 87.4043C768.888 78.4998 799.163 65.3533 829.172 50.8309C859.942 35.9646 891.018 20.7162 924.954 14.6779C981.996 4.55051 1039.42 22.2066 1092.57 41.5061C1146.45 61.073 1199.87 84.6527 1257.1 92.2579C1284.25 95.8502 1311.93 95.3534 1338.66 88.933C1373.09 80.6782 1404.32 63.2896 1437.04 50.2959C1556.54 2.86897 1695.14 6.19383 1812.5 58.6654C1827.07 65.1622 1841.25 72.4616 1855.09 80.3725C1856.24 81.0221 1857.38 81.2514 1858.45 81.175C1879.99 92.6782 1900.24 106.36 1920.72 119.736C1927.08 123.901 1932.99 113.659 1926.66 109.532Z" fill="#737373"/>
</svg>
