<svg width="369" height="39" viewBox="0 0 369 39" fill="none" xmlns="http://www.w3.org/2000/svg">
<path d="M24.5184 38.3434V6.60943H0V0.787879H55.1981V6.60943H30.5953V38.3434H24.5184Z" fill="white"/>
<path d="M117.486 19.4781C117.486 32.5219 109.974 39 86.6374 39C63.174 39 55.7045 32.5219 55.7045 19.4781C55.7045 6.39057 63.1318 0 86.5952 0C109.974 0 117.486 6.39057 117.486 19.4781ZM111.409 19.4781C111.409 9.58586 105.037 5.82155 86.6374 5.82155C68.1958 5.82155 61.7813 9.58586 61.7813 19.4781C61.7813 29.3704 68.1958 33.1784 86.6374 33.1784C104.995 33.1784 111.409 29.3704 111.409 19.4781Z" fill="white"/>
<path d="M172.895 0.787879H178.972V38.3434H169.814L128.964 6.82828V38.3434H122.887V0.787879H131.539L172.895 32.7407V0.787879Z" fill="white"/>
<path d="M185.682 38.3434V0.787879H235.647V6.60943H191.758V15.8013H233.663V21.6229H191.758V32.5219H236.195V38.3434H185.682Z" fill="white"/>
<path d="M295.276 38.3434H288.904C288.397 36.4175 288.271 34.0539 288.271 30.6397C288.271 26.1313 285.865 24.6869 278.776 24.6869H247.674V38.3434H241.597V0.787879H277.341C289.368 0.83165 293.799 3.85185 293.799 12.5623C293.799 17.202 292.069 19.8721 287.806 21.2727C292.575 22.4983 294.305 25.2559 294.305 30.6397C294.305 34.0539 294.601 36.3737 295.276 38.3434ZM247.674 18.8216H278.776C285.485 18.8216 287.806 17.202 287.806 12.5623C287.806 8.09764 285.485 6.60943 278.776 6.60943H247.674V18.8216Z" fill="white"/>
<path d="M300.129 38.3434V0.787879H306.206V38.3434H300.129Z" fill="white"/>
<path d="M362.923 0.787879H369V38.3434H359.842L318.993 6.82828V38.3434H312.916V0.787879H321.567L362.923 32.7407V0.787879Z" fill="white"/>
</svg>
