<svg width="65" height="63" viewBox="0 0 65 63" fill="none" xmlns="http://www.w3.org/2000/svg">
<path d="M56.9083 18.0409C57.7142 18.0409 58.4587 17.611 58.8614 16.9133C59.2641 16.2156 59.2641 15.3558 58.8614 14.6582C58.4587 13.9605 57.7142 13.5306 56.9083 13.5306H51.2705C50.8668 13.5316 50.4938 13.3162 50.2919 12.9668L46.1064 5.6377H44.8727L46.7161 12.094H46.7166C46.8132 12.4343 46.7452 12.7998 46.5323 13.0822C46.3194 13.3646 45.9862 13.5302 45.6328 13.5307H44.0542C44.6633 14.9724 44.6633 16.5992 44.0542 18.0409L56.9083 18.0409Z" fill="#E67777"/>
<path d="M62.207 34.457C61.4841 33.8293 60.8896 33.0677 60.4557 32.2145C60.0832 31.2838 59.829 30.3103 59.6991 29.3166C59.6362 28.9512 59.5753 28.5918 59.5008 28.2475C59.4791 28.1473 59.4535 28.0582 59.4308 27.96C54.7308 31.6623 48.4209 32.5971 42.8486 30.4175C37.2768 28.2379 33.277 23.2695 32.3361 17.361C31.8051 17.1536 31.2851 16.9291 30.7847 16.7V16.7005C29.6139 16.0426 28.3086 15.6601 26.9682 15.582C25.6317 15.732 24.3848 16.328 23.4284 17.2734C23.0111 17.6262 22.6129 18.0007 22.2143 18.3738C21.4451 19.1328 20.6156 19.8275 19.7336 20.4517C18.0946 21.54 16.1854 22.1496 14.2197 22.213C13.8024 22.2286 13.4148 22.2286 13.0413 22.2241C12.0884 22.145 11.1294 22.2835 10.2369 22.6278C7.67976 23.8943 5.62747 25.9904 4.41537 28.5737C3.96335 29.6761 3.66031 30.8338 3.51333 32.0163C3.35325 33.158 3.08193 34.2815 2.70289 35.3708C2.39734 36.0866 2.0193 36.7692 1.57533 37.408C0.942076 38.1832 0.575122 39.1416 0.528809 40.1413C0.579649 46.3302 5.82834 52.0472 12.2308 52.8827C13.753 53.0539 15.2607 53.3378 16.7411 53.7319L22.1826 55.2743C22.7031 55.3805 23.0791 55.8356 23.0847 56.3671C23.0771 58.3565 23.9666 60.2436 25.5054 61.504C27.0446 62.765 29.0703 63.2648 31.0193 62.8651L49.0139 60.099C50.5497 59.865 52.1187 59.9737 53.6076 60.4182C55.8013 61.072 58.1733 60.694 60.0548 59.3898C62.0406 58.0447 63.3087 55.8717 63.503 53.4811C63.5196 52.5121 63.3711 51.5466 63.063 50.6274C62.7157 49.5542 62.5405 48.4327 62.5446 47.3046C62.6603 45.7522 62.9246 44.2149 63.3338 42.7128C63.513 41.9663 63.6922 41.2188 63.8332 40.4577C64.2606 38.8016 64.0345 37.0444 63.203 35.5498C62.9035 35.1567 62.5702 34.7912 62.2063 34.457L62.207 34.457ZM11.0157 45.8997L10.4927 45.3752C9.25845 44.143 8.6202 42.436 8.74198 40.6963C8.8638 38.9566 9.73463 37.3554 11.1285 36.3073L12.4816 38.1114C11.6093 38.7658 11.0636 39.7666 10.9865 40.8543C10.909 41.9421 11.3077 43.0098 12.0789 43.7809L12.6034 44.3054L11.0157 45.8997ZM47.0075 34.5623V34.5618C48.6877 33.7227 50.6352 33.5968 52.4097 34.213C54.1836 34.8291 55.6343 36.1353 56.4327 37.8352C57.2315 39.535 57.3101 41.4851 56.6517 43.244L54.5904 48.7419L52.4772 47.9526L54.5396 42.4547C54.9861 41.2652 54.9332 39.9459 54.3931 38.7956C53.853 37.6454 52.8719 36.7615 51.6714 36.3451C50.4708 35.9283 49.153 36.0139 48.0169 36.5827L45.0179 38.0823L44.0096 36.0653L47.0075 34.5623ZM29.8453 26.4977C29.8474 24.9276 30.2012 23.3788 30.8818 21.9638L32.9114 22.9438C32.3783 24.0528 32.101 25.2674 32.1005 26.4977C32.1025 28.5585 31.4919 30.574 30.3473 32.2875L28.4711 31.0361H28.4706C29.3687 29.6931 29.8474 28.1135 29.8454 26.4977L29.8453 26.4977ZM17.3149 31.5416L16.1254 33.3256L14.2493 32.0742L15.4387 30.2902V30.2897C16.3121 28.9754 17.7865 28.1866 19.3646 28.1891C19.8815 28.1891 20.3854 28.0265 20.8048 27.724C21.2246 27.4219 21.5377 26.9951 21.7008 26.5043L23.1373 22.195L25.2797 22.9077L23.8431 27.2186V27.2181C23.5305 28.1584 22.9295 28.9765 22.1256 29.5553C21.3217 30.1347 20.3558 30.4458 19.3646 30.4443C18.5406 30.4423 17.7704 30.8545 17.3149 31.5416L17.3149 31.5416ZM18.5924 45.3275L18.5698 45.2147C18.2033 43.3507 18.3684 41.4212 19.0465 39.6469C19.724 37.8724 20.8873 36.3241 22.4035 35.1794L23.7566 36.9835C22.5797 37.8715 21.6766 39.0731 21.1506 40.4502C20.624 41.8275 20.4962 43.325 20.7811 44.7717L18.5924 45.3275ZM23.0573 54.3479L20.8476 53.8969C21.2996 51.6418 23.2909 47.3571 27.5902 47.3571C30.5359 47.3027 33.4681 46.9363 36.3369 46.2632L36.8851 48.451H36.8846C33.8376 49.1718 30.7212 49.5614 27.5902 49.6122C24.0449 49.6122 23.0674 54.2962 23.0573 54.348V54.3479ZM34.2202 58.3664L30.1982 59.706L29.4854 57.5636L33.5064 56.2216V56.2221C34.8418 55.7777 36.2226 55.4827 37.6234 55.3427L37.8489 57.5868V57.5863C36.6152 57.7101 35.3995 57.9703 34.2236 58.362L34.2202 58.3664ZM38.8769 37.2327C38.3308 37.5051 37.9155 37.9838 37.7237 38.5631L37.6371 38.8249H37.6366C37.2545 39.9706 36.4325 40.9179 35.3522 41.4576C34.2715 41.9977 33.0206 42.0858 31.875 41.7037C31.2669 41.5019 30.6019 41.5623 30.0402 41.8709C29.4789 42.1794 29.0712 42.708 28.9152 43.3296L28.6896 44.2472L26.5019 43.7016L26.7274 42.7824C27.0355 41.5507 27.8429 40.5031 28.9559 39.892C30.0693 39.2814 31.3866 39.1626 32.5907 39.5643C33.1701 39.7581 33.8024 39.7138 34.3481 39.441C34.8942 39.1681 35.3095 38.6894 35.5023 38.1101L35.5889 37.8483H35.5894C35.9714 36.7036 36.7924 35.7572 37.8722 35.2177C38.9514 34.6781 40.2013 34.5885 41.3465 34.9695L41.4739 35.0113L40.7656 37.1537L40.6357 37.1109H40.6362C40.0569 36.9151 39.4236 36.9589 38.877 37.2327L38.8769 37.2327ZM40.2189 47.3345L39.7679 45.1248L41.4185 44.7945V44.794C43.6802 44.3476 45.6695 43.0151 46.9436 41.0937L48.8197 42.3451H48.8202C47.216 44.7653 44.7106 46.4436 41.862 47.0053L40.2189 47.3345ZM59.1387 52.1357C58.7431 53.3177 57.8541 54.2696 56.7024 54.7452C55.5507 55.2214 54.249 55.1741 53.1344 54.6164C52.6255 54.3637 52.0346 54.3325 51.5015 54.5308L46.8019 56.2942C45.7579 56.6843 44.6817 56.9823 43.5864 57.1862L43.1761 54.9683H43.1756C44.1416 54.7881 45.0904 54.5238 46.0106 54.179L50.7057 52.4248C51.8257 52.008 53.068 52.0734 54.1382 52.605C54.6688 52.8702 55.2884 52.8924 55.8367 52.6659C56.3848 52.4389 56.8077 51.9848 56.9954 51.422L58.0928 48.1284L60.2351 48.8412L59.1387 52.1357Z" fill="#8D8D8E"/>
<path d="M49.0152 29.3166C52.9028 29.3166 56.6313 27.7723 59.3803 25.0233C62.1292 22.2744 63.6735 18.5459 63.6735 14.6583C63.6735 10.7707 62.1292 7.04216 59.3803 4.29323C56.6313 1.54431 52.9028 0 49.0152 0C45.1276 0 41.3991 1.54431 38.6502 4.29323C35.9012 7.04216 34.3569 10.7707 34.3569 14.6583C34.3615 18.5443 35.9073 22.2703 38.6552 25.0183C41.4031 27.7663 45.1291 29.3121 49.0152 29.3166ZM41.1223 11.2756H44.1375L42.2935 4.81926C42.1969 4.47898 42.2648 4.11352 42.4778 3.83113C42.6907 3.54873 43.0239 3.38312 43.3773 3.38262H46.76C47.1637 3.38161 47.5367 3.59706 47.7386 3.9464L51.9241 11.2755H56.908C58.5193 11.2755 60.0083 12.1353 60.8141 13.5307C61.6195 14.926 61.6195 16.6456 60.8141 18.0409C60.0082 19.4362 58.5192 20.296 56.908 20.296H41.1222C39.2254 20.296 37.7395 18.3147 37.7395 15.7858C37.7395 13.2568 39.2254 11.2755 41.1222 11.2755L41.1223 11.2756Z" fill="#E67777"/>
<path d="M42.2497 15.7859C42.2497 17.0312 41.7449 18.041 41.1222 18.041C40.4995 18.041 39.9946 17.0312 39.9946 15.7859C39.9946 14.5405 40.4995 13.5308 41.1222 13.5308C41.7449 13.5308 42.2497 14.5405 42.2497 15.7859Z" fill="#E67777"/>
</svg>
