<svg width="70" height="47" viewBox="0 0 70 47" fill="none" xmlns="http://www.w3.org/2000/svg">
<path fill-rule="evenodd" clip-rule="evenodd" d="M26.7374 39.9536C21.6595 39.0049 16.8244 36.8657 11.8335 33.2387C9.63632 31.6418 8.11343 29.6981 5.87707 31.6319C4.32487 32.9774 4.55168 35.3214 5.80926 36.621C7.8377 38.7138 10.0838 40.6215 12.6987 42.0136C20.5219 46.1631 26.9541 47.3697 35.8859 46.9069C52.7537 46.0341 64.3549 38.0302 69.4048 23.5661C71.0899 18.7425 68.8666 16.8712 66.8414 20.5114C62.3432 28.5983 56.5621 35.3791 47.618 38.3022C46.5845 38.6425 45.5603 38.9403 44.5555 39.2049C45.7382 38.4544 46.8303 37.5716 47.809 36.5731L47.8123 36.5665C51.0918 33.2207 53.1204 28.6018 53.1204 23.5004C53.1204 18.4023 51.0919 13.7768 47.8123 10.431L47.809 10.4277C46.4836 9.07557 44.951 7.92815 43.2653 7.04541C48.3433 7.99408 53.1816 10.1333 58.172 13.7603C60.3692 15.3572 61.8921 17.3009 64.1285 15.3671C65.6807 14.0216 65.4506 11.6776 64.1963 10.378C62.1679 8.28861 59.9218 6.37748 57.3068 4.98876C49.4836 0.835923 43.0515 -0.367322 34.1197 0.0920418C17.2463 0.968758 5.64513 8.9693 0.595211 23.4343C-1.0899 28.2579 1.1334 30.1292 3.15864 26.489C7.65677 18.4021 13.4379 11.6213 22.382 8.69824C23.4187 8.35785 24.4397 8.06063 25.4445 7.79606C24.2645 8.54659 23.1725 9.42877 22.1904 10.4273L22.1872 10.4306C18.9108 13.7764 16.8824 18.4019 16.8824 23.4999C16.8824 28.6014 18.9108 33.2202 22.1905 36.566L22.1938 36.5727C23.5192 37.9248 25.0523 39.0683 26.7374 39.9544V39.9536ZM46.5413 11.7258C49.4904 14.7379 51.3215 18.9001 51.3215 23.4989C51.3215 28.0978 49.4937 32.26 46.5413 35.2753C43.5922 38.2808 39.509 40.1488 35.0012 40.1488C30.4934 40.1488 26.4136 38.2842 23.4611 35.2753C20.512 32.26 18.6841 28.0978 18.6841 23.4989C18.6841 18.9001 20.5118 14.7379 23.4611 11.7258C26.4136 8.71712 30.4934 6.85231 35.0012 6.85231C39.509 6.85231 43.5888 8.71697 46.5413 11.7258ZM35.0012 13.6171C40.3483 13.6171 44.6874 18.0406 44.6874 23.4989C44.6874 28.9541 40.3483 33.3808 35.0012 33.3808C29.6509 33.3808 25.315 28.9541 25.315 23.4989C25.315 18.0406 29.6509 13.6171 35.0012 13.6171Z" fill="#8D8D8E"/>
</svg>
